# xmcd
#
# Track frame offsets:
#	150
#	15786
#	30298
#	48178
#	58955
#	73016
#	87615
#	101917
#	119410
#	136337
#	150216
#	164624
#
# Disc length: 2400 seconds
# Revision: 0
# Processed by: cddbd v1.5.2PL0 Copyright (c) Steve Scherf et al.
# Submitted via: dBpowerAMP V12.0
#
DISCID=97095e0c
DTITLE=Stacy Grubb - From the Barroom to the Steeple
DYEAR=2014
DGENRE=Country
TTITLE0=Wish I Didn't Know Love
TTITLE1=Can't Let You Go
TTITLE2=Six White Horses
TTITLE3=Cold On The Ground
TTITLE4=(Falling like a) Leaf In a Summer Storm
TTITLE5=Gone Away From Me
TTITLE6=Because You Love Me
TTITLE7=Straight Line
TTITLE8=Spirit of the Mountains
TTITLE9=Time
TTITLE10=All That Matters
TTITLE11=Beautiful Girl
EXTD=
EXTT0=
EXTT1=
EXTT2=
EXTT3=
EXTT4=
EXTT5=
EXTT6=
EXTT7=
EXTT8=
EXTT9=
EXTT10=
EXTT11=
PLAYORDER=
